<svg width="405" height="444" viewBox="0 0 405 444" fill="none" xmlns="http://www.w3.org/2000/svg">
<g filter="url(#filter0_i_5_7)">
<path d="M231.48 53.9375C224.319 61.4245 221.145 68.7487 221.959 75.9102C222.773 82.9089 228.632 88.0358 239.537 91.291C253.535 95.5228 262.812 101.057 267.369 107.893C271.926 114.566 274.693 122.378 275.67 131.33C275.833 132.958 276.484 134.016 277.623 134.504C278.925 134.992 280.227 134.992 281.529 134.504C302.2 122.46 323.44 108.055 345.25 91.291C346.552 90.3145 347.854 90.1517 349.156 90.8027C350.458 91.4538 351.272 92.4303 351.598 93.7324C353.225 102.521 356.48 110.008 361.363 116.193C366.409 122.378 371.617 128.482 376.988 134.504C397.008 157.128 405.878 182.437 403.6 210.432C401.321 244.774 389.358 271.06 367.711 289.289C343.785 309.471 325.393 328.433 312.535 346.174C310.908 348.29 309.036 348.615 306.92 347.15C302.851 344.709 298.782 342.349 294.713 340.07C290.644 337.792 286.575 335.432 282.506 332.99C281.204 332.339 279.902 332.339 278.6 332.99C277.46 333.479 276.891 334.536 276.891 336.164C274.938 353.742 272.415 370.995 269.322 387.922C266.393 404.849 263.219 421.857 259.801 438.947C259.15 441.226 257.766 442.284 255.65 442.121C253.535 442.121 252.232 441.063 251.744 438.947C248.326 419.253 245.071 398.176 241.979 375.715C239.049 353.417 236.77 331.932 235.143 311.262C234.817 309.471 233.922 308.332 232.457 307.844C216.018 301.822 204.381 302.554 197.545 310.041C196.08 311.506 194.534 311.994 192.906 311.506C191.441 310.855 190.709 309.39 190.709 307.111C190.872 280.581 203.567 266.503 228.795 264.875C231.236 264.875 232.457 263.573 232.457 260.969V253.4C232.457 229.149 232.05 211.734 231.236 201.154C230.585 190.575 230.016 177.717 229.527 162.58C229.202 155.256 227.33 149.641 223.912 145.734C220.494 141.828 217.076 138.41 213.658 135.48C198.847 123.273 192.662 109.846 195.104 95.1973C197.708 80.3861 207.392 65.3307 224.156 50.0313C227.086 46.9388 229.609 46.2878 231.725 48.0781C233.84 49.7057 233.759 51.6589 231.48 53.9375ZM279.82 275.129C279.82 277.082 280.553 278.303 282.018 278.791C290.318 283.023 298.375 287.499 306.188 292.219C314.163 296.939 322.219 301.577 330.357 306.135C332.799 307.274 334.671 306.786 335.973 304.67C340.855 297.02 345.413 287.58 349.645 276.35C353.876 265.119 356.155 251.122 356.48 234.357C356.806 216.942 353.388 201.398 346.227 187.727C339.228 173.892 331.578 160.708 323.277 148.176C314.651 136.132 299.758 135.236 278.6 145.49C276.972 146.304 276.158 147.525 276.158 149.152C276.321 151.105 276.402 154.035 276.402 157.941L279.576 254.621C279.739 259.341 279.82 266.177 279.82 275.129Z" fill="#B6735C"/>
<path d="M119.371 220.576C111.07 226.924 101.956 233.923 92.0274 241.572C82.099 249.059 72.903 255.977 64.4395 262.324C61.5098 264.603 59.1497 265.579 57.3594 265.254C55.7318 264.928 55.0807 263.464 55.4063 260.859C55.4063 257.441 50.3607 250.931 40.2695 241.328C13.7396 216.426 0.962895 184.036 1.93946 144.16C2.91602 109.98 18.7852 81.0905 49.5469 57.4902C58.987 50.3288 67.776 42.7604 75.9141 34.7852C84.2149 26.8099 91.5391 17.1257 97.8867 5.73243C100.491 0.686859 104.072 0.524099 108.629 5.24415C133.368 33.2389 158.108 49.7591 182.848 54.8047C190.66 56.2695 191.474 59.362 185.289 64.082C177.639 69.6159 173.489 76.4518 172.838 84.5899V85.0781L173.57 196.65C173.57 204.137 176.256 209.264 181.627 212.031C187.161 214.798 193.102 212.682 199.449 205.684C201.891 202.917 204.169 202.266 206.285 203.73C208.564 205.033 208.645 207.474 206.529 211.055C200.67 219.844 194.973 228.47 189.439 236.934C184.068 245.397 179.511 254.186 175.768 263.301L175.523 263.545C173.245 267.288 170.478 267.288 167.223 263.545C165.432 261.592 163.316 260.29 160.875 259.639C142.32 255.57 130.602 243.281 125.719 222.773C125.393 221.797 124.579 220.82 123.277 219.844C121.813 219.681 120.51 219.925 119.371 220.576ZM122.057 76.7774C111.966 74.0104 100.165 66.1979 86.6563 53.3399C80.1458 45.5274 74.9375 44.7949 71.0313 51.1426C53.7787 76.8587 47.0241 105.26 50.7676 136.348C55.9759 180.781 71.6009 208.206 97.6426 218.623C97.8053 218.623 97.9681 218.704 98.1309 218.867C104.804 220.983 112.861 216.995 122.301 206.904C122.952 205.928 123.277 205.033 123.277 204.219C123.115 201.777 123.033 197.952 123.033 192.744L125.23 80.6836C125.23 78.7305 124.173 77.4284 122.057 76.7774Z" fill="#CF633F"/>
</g>
<path d="M228.121 46.7391C229.543 46.3721 230.861 46.7014 232.029 47.6815L232.236 47.8475C233.241 48.6853 233.796 49.6645 233.75 50.784C233.701 51.943 233.01 53.1107 231.841 54.2821L231.842 54.2831C224.737 61.7108 221.666 68.8947 222.456 75.8524L222.543 76.4754C223.589 82.8582 229.175 87.6765 239.68 90.8123H239.681L240.984 91.2137C254.294 95.403 263.271 100.848 267.782 107.61L268.209 108.247C272.423 114.641 275.04 122.04 276.069 130.433L276.167 131.276L276.168 131.28L276.201 131.556C276.392 132.893 276.954 133.669 277.809 134.04C278.983 134.477 280.144 134.479 281.317 134.048C301.954 122.02 323.164 107.637 344.945 90.8944L344.95 90.8914L345.216 90.702C345.837 90.2843 346.48 90.0229 347.141 89.9403C347.901 89.8454 348.651 89.9908 349.38 90.3553C350.711 91.021 351.601 92.02 352.008 93.3426L352.083 93.6112L352.087 93.6258L352.09 93.6414C353.704 102.361 356.93 109.771 361.756 115.884C366.165 121.288 370.699 126.631 375.357 131.911L377.361 134.171L377.363 134.173L378.297 135.239C397.741 157.685 406.353 182.771 404.098 210.473L404.097 210.472C401.846 244.377 390.178 270.51 369.047 288.806L368.033 289.672C344.126 309.838 325.767 328.77 312.94 346.468L312.936 346.473L312.931 346.478C312.072 347.595 311.097 348.306 309.996 348.498C308.896 348.689 307.773 348.344 306.652 347.572C302.591 345.136 298.529 342.781 294.469 340.507C290.403 338.23 286.338 335.871 282.272 333.432C281.114 332.857 279.981 332.858 278.823 333.437L278.81 333.444L278.797 333.45C278.328 333.651 277.988 333.961 277.759 334.387C277.524 334.821 277.39 335.405 277.39 336.164V336.192L277.387 336.22C275.433 353.807 272.908 371.069 269.814 388.006L269.815 388.007C266.885 404.938 263.71 421.952 260.291 439.046L260.287 439.065L260.282 439.085C259.937 440.291 259.382 441.232 258.579 441.847C257.769 442.466 256.765 442.709 255.612 442.62V442.619C254.486 442.613 253.524 442.327 252.771 441.716C252.011 441.098 251.518 440.194 251.257 439.059L251.254 439.047L251.252 439.033C247.833 419.333 244.576 398.249 241.483 375.783V375.78C238.554 353.484 236.274 332 234.646 311.329C234.343 309.693 233.55 308.735 232.299 308.318L232.292 308.316L232.285 308.313C215.886 302.306 204.53 303.131 197.914 310.378L197.907 310.387L197.898 310.394C196.337 311.955 194.608 312.539 192.762 311.985L192.732 311.975L192.703 311.963C190.983 311.198 190.209 309.49 190.209 307.111V307.108L190.226 305.867C190.496 293.13 193.726 283.258 199.981 276.32C206.442 269.155 216.063 265.195 228.762 264.376L228.779 264.375H228.795C229.93 264.375 230.691 264.074 231.177 263.556C231.667 263.033 231.957 262.201 231.957 260.969V253.4C231.957 229.15 231.55 211.751 230.738 201.192L230.737 201.185C230.086 190.601 229.516 177.739 229.028 162.602L228.993 161.928C228.588 155.004 226.75 149.737 223.536 146.063C220.131 142.172 216.73 138.772 213.333 135.86V135.859C198.436 123.579 192.131 109.989 194.61 95.1151L194.611 95.1102C197.242 80.1498 207.009 65.0039 223.81 49.6688C225.297 48.1038 226.733 47.0972 228.121 46.7391ZM305.608 138.971C298.283 138.53 289.36 140.831 278.818 145.94L278.817 145.939C278.066 146.316 277.532 146.773 277.184 147.294C276.84 147.81 276.66 148.42 276.658 149.141C276.821 151.113 276.902 154.044 276.902 157.925L280.076 254.604L280.134 256.476C280.258 261.076 280.32 267.295 280.32 275.129C280.32 276.047 280.493 276.743 280.799 277.252C281.061 277.688 281.436 278.016 281.948 278.231L282.176 278.316L282.212 278.329L282.245 278.346C290.556 282.583 298.623 287.065 306.446 291.791H306.445C314.409 296.504 322.455 301.135 330.581 305.686C331.732 306.221 332.683 306.344 333.467 306.139C334.245 305.936 334.943 305.388 335.547 304.408L335.552 304.401L336.459 302.952C340.977 295.605 345.217 286.681 349.177 276.174C353.382 265.013 355.655 251.076 355.98 234.348C356.304 217.006 352.901 201.547 345.784 187.959L345.78 187.952C338.79 174.134 331.15 160.968 322.86 148.452H322.859C318.635 142.563 312.899 139.409 305.608 138.971ZM77.7976 47.4266C75.4711 47.0994 73.3566 48.3179 71.4568 51.4051L71.4519 51.4129L71.446 51.4207C54.5296 76.6359 47.7471 104.435 51.0964 134.838L51.2644 136.288V136.29L51.5154 138.356C56.9488 181.462 72.4173 207.956 97.7576 218.13C97.9999 218.158 98.2091 218.272 98.3835 218.421C101.539 219.389 105.052 218.948 108.957 217.015C112.902 215.063 117.218 211.599 121.905 206.594C122.507 205.682 122.774 204.898 122.776 204.227C122.613 201.767 122.533 197.937 122.533 192.744V192.734L124.73 80.6834L124.719 80.3612C124.668 79.63 124.438 79.0366 124.049 78.5575C123.599 78.0045 122.903 77.5612 121.91 77.2557V77.2547C111.702 74.4514 99.8336 66.5727 86.3113 53.702L86.2908 53.6825L86.2722 53.66C83.0319 49.7717 80.2063 47.7654 77.7976 47.4266ZM174.078 197.333C174.237 204.307 176.853 209.007 181.85 211.584L182.347 211.818C184.835 212.92 187.398 212.999 190.065 212.049C192.929 211.029 195.935 208.814 199.079 205.348C200.329 203.932 201.585 203.002 202.852 202.639C204.149 202.269 205.4 202.51 206.569 203.318C207.822 204.047 208.508 205.126 208.554 206.521C208.6 207.883 208.036 209.488 206.96 211.309L206.953 211.321L206.945 211.332C201.088 220.118 195.393 228.741 189.861 237.201L189.862 237.202C184.506 245.641 179.962 254.404 176.23 263.491L176.192 263.584L176.121 263.654L175.917 263.857C174.749 265.754 173.367 266.852 171.739 266.852C170.133 266.852 168.503 265.776 166.854 263.883L166.526 263.537C164.869 261.843 162.944 260.708 160.746 260.122V260.121C151.393 258.066 143.74 253.935 137.808 247.716C131.879 241.498 127.695 233.22 125.237 222.911C124.961 222.102 124.271 221.238 123.083 220.327C121.779 220.206 120.639 220.434 119.643 220.996C111.351 227.337 102.248 234.329 92.3328 241.969L92.3289 241.972C82.403 249.457 73.2078 256.371 64.7458 262.718L64.7468 262.719C63.2613 263.874 61.8992 264.716 60.6638 265.227C59.4295 265.738 58.2907 265.931 57.2703 265.746L57.2615 265.744C56.2952 265.551 55.5873 265.001 55.1931 264.114C54.8183 263.271 54.7445 262.163 54.905 260.842C54.9007 260.103 54.6244 259.143 54.0144 257.942C53.4031 256.739 52.4774 255.333 51.2273 253.72C48.7268 250.493 44.9625 246.484 39.9246 241.69V241.689C13.2824 216.68 0.459663 184.15 1.43921 144.148V144.146L1.49683 142.54C2.92357 108.889 18.862 80.4017 49.2429 57.0936L49.2449 57.0916L51.0037 55.7469C59.7625 48.9969 67.9494 41.8901 75.5642 34.4276L75.5681 34.4247L76.3396 33.6756C84.2835 25.8837 91.321 16.4897 97.45 5.48911C98.7819 2.9147 100.449 1.42036 102.503 1.327C104.392 1.2411 106.416 2.3584 108.558 4.46274L108.989 4.89731L108.996 4.90512L109.004 4.91293C133.704 32.8637 158.355 49.2986 182.948 54.3143H182.947C184.919 54.6845 186.488 55.164 187.629 55.7664C188.766 56.3673 189.546 57.1298 189.801 58.0956C190.056 59.0662 189.74 60.0931 189.027 61.1307C188.313 62.1696 187.157 63.2852 185.593 64.4793L185.582 64.4872C178.034 69.9476 173.978 76.6553 173.338 84.619V85.075L174.07 196.647V196.65L174.078 197.333Z" stroke="black" stroke-opacity="0.52"/>
<defs>
<filter id="filter0_i_5_7" x="0.887466" y="0.822052" width="404.061" height="446.315" filterUnits="userSpaceOnUse" color-interpolation-filters="sRGB">
<feFlood flood-opacity="0" result="BackgroundImageFix"/>
<feBlend mode="normal" in="SourceGraphic" in2="BackgroundImageFix" result="shape"/>
<feColorMatrix in="SourceAlpha" type="matrix" values="0 0 0 0 0 0 0 0 0 0 0 0 0 0 0 0 0 0 127 0" result="hardAlpha"/>
<feOffset dy="4"/>
<feGaussianBlur stdDeviation="2"/>
<feComposite in2="hardAlpha" operator="arithmetic" k2="-1" k3="1"/>
<feColorMatrix type="matrix" values="0 0 0 0 0 0 0 0 0 0 0 0 0 0 0 0 0 0 0.25 0"/>
<feBlend mode="normal" in2="shape" result="effect1_innerShadow_5_7"/>
</filter>
</defs>
</svg>
